# xmcd
#
# Track frame offsets:
#	150
#	33069
#	62538
#	86572
#	113878
#	150028
#	172156
#	196230
#	218411
#	240637
#	273245
#
# Disc length: 3944 seconds
#
# Revision: 3
# Processed by: cddbd v1.5.2PL0 Copyright (c) Steve Scherf et al.
# Submitted via: EasyCDDAExtractor 2010.6.0.0
#
DISCID=800f660b
DTITLE=OS GARGANTAS DE OURO - VOL-04 [XOTE DA ALEGRIA]
DYEAR=2003
DGENRE=FORRO CAPIXABA
TTITLE0=NÓIS NÃO VIVE É SEM DINHEIRO - MEU CARRO É UM CACETE (BY DJ GILMAR SIN
TTITLE0=ISTRO) 
TTITLE1=XOTE DA ALEGRIA - QUE SAUDADE MATADEIRA (BY DJ GILMAR SINISTRO)
TTITLE2=PULA NI MIM MENINA - QUEM TEM... TEM MEDO (BY DJ GILMAR SINISTRO)
TTITLE3=PRA FICAR DEZ - Ô DE CASA Ô DE FORA (BY DJ GILMAR SINISTRO)
TTITLE4=GIRIPOCA /PEÃO QUE É PEÃO (BY DJ GILMAR SINISTRO)
TTITLE5=MACHÃO DE COZINHA - APAIXONADO POR VOCÊ (BY DJ GILMAR SINISTRO)
TTITLE6=EU FUI PARPANDO - BOA NOITE AMOR DA MINHA VIDA (BY DJ GILMAR SINISTRO)
TTITLE7=MOÇA DO TAMBOR - SOCA PILÃO (BY DJ GILMAR SINISTRO)
TTITLE8=PÉ DE MANGA - RODA PIÃO (BY DJ GILMAR SINISTRO)
TTITLE9=ONDE ESTARÁ - VIVENDO LONGE DO MEU BEM (BY DJ GILMAR SINISTRO)
TTITLE10=O PAVIO - QUEBRA TOPETE (BY DJ GILMAR SINISTRO)
EXTD=
EXTT0=
EXTT1=
EXTT2=
EXTT3=
EXTT4=
EXTT5=
EXTT6=
EXTT7=
EXTT8=
EXTT9=
EXTT10=
PLAYORDER=
